Coordinates
version=1
nRows=34
nColumns=19
inDegrees=yes

Units are S.I. units (second, meters, Newtons, ...)
If the header above contains a line with 'inDegrees', this indicates whether rotational values are in degrees (yes) or radians (no).

endheader
time	pelvis_to_ground_rx	pelvis_to_ground_ry	pelvis_to_ground_rz	pelvis_to_ground_tx	pelvis_to_ground_ty	pelvis_to_ground_tz	left_hip_abduction	left_hip_rotation	left_hip_flexion	left_knee_flexion	left_ankle_flexion	left_subtalar_angle	right_hip_abduction	right_hip_rotation	right_hip_flexion	right_knee_flexion	right_ankle_flexion	right_subtalar_angle
      2.00000000	     98.89446142	      8.12972242	     -5.64167297	      0.43846069	     -0.75834621	      0.72950239	    -15.17292205	     -6.95347394	     17.43103013	    -29.53119489	      4.46756572	    -10.10063936	      1.71633576	    -17.15734331	     23.92463505	    -64.41466490	     -5.35661599	    -10.93169756
      2.01000000	     98.66847603	      8.64417203	     -5.51997364	      0.44875561	     -0.75795296	      0.73166270	    -14.73949499	     -7.80609511	     15.92589841	    -28.63749706	      4.30982780	     -9.85922950	      2.16815423	    -16.94773190	     25.47161011	    -64.12620114	     -4.85097573	    -11.26901208
      2.02000000	     98.44299077	      9.13814426	     -5.36814537	      0.45894719	     -0.75761008	      0.73345997	    -14.34881591	     -8.53038131	     14.54107627	    -27.98520269	      4.00509304	     -9.64852639	      2.51332506	    -16.63856686	     26.95131578	    -63.64558901	     -4.00987097	    -11.88338943
      2.03000000	     98.26027568	      9.66040963	     -5.16425526	      0.46905434	     -0.75729396	      0.73488521	    -14.03784821	     -9.30382118	     13.18139819	    -27.50544144	      3.96749773	     -9.51680598	      2.69504694	    -16.36409618	     28.32955640	    -62.97545550	     -3.79904636	    -12.05663535
      2.04000000	     98.11586479	     10.18289097	     -4.98097582	      0.47905843	     -0.75701066	      0.73592836	    -13.79608000	     -9.96585643	     11.96143166	    -27.22812912	      3.92254383	     -9.39530355	      2.74139045	    -16.06532581	     29.67932745	    -62.10887535	     -3.53049243	    -12.28080366
      2.05000000	     98.01975180	     10.71225727	     -4.80169005	      0.48897700	     -0.75675528	      0.73658244	    -13.62827736	    -10.46954195	     10.85628116	    -27.13731821	      3.89610511	     -9.28311039	      2.63660243	    -15.77541431	     30.96606091	    -61.03173168	     -3.28107390	    -12.48602951
      2.06000000	     97.97416970	     11.25503780	     -4.63601767	      0.49883656	     -0.75653166	      0.73685419	    -13.52479685	    -10.81587928	      9.85739810	    -27.20430188	      3.90509670	     -9.17078511	      2.38822580	    -15.51487537	     32.18383330	    -59.73107440	     -3.09467130	    -12.62078630
      2.07000000	     97.97660728	     11.80827899	     -4.49493069	      0.50865747	     -0.75633291	      0.73676605	    -13.47326372	    -11.03298097	      8.95460356	    -27.39661384	      3.95855717	     -9.04459160	      2.00822370	    -15.29238547	     33.32402475	    -58.18685997	     -2.97859555	    -12.66245356
      2.08000000	     97.99506411	     12.34836057	     -4.34072598	      0.51848534	     -0.75616089	      0.73633619	    -13.43111292	    -10.98910900	      8.12513256	    -27.70528261	      3.99544403	     -8.99901745	      1.52567840	    -15.07478840	     34.32150935	    -56.37236585	     -2.95544191	    -12.62666629
      2.09000000	     98.08471270	     12.94082097	     -4.28588180	      0.52831816	     -0.75601470	      0.73560463	    -13.44941811	    -11.06696618	      7.39746480	    -28.08983494	      4.68697592	     -8.19255089	      0.93831592	    -14.97828674	     35.28019373	    -54.30486897	     -3.04328270	    -11.89337043
      2.10000000	     98.17688756	     13.49336503	     -4.20168341	      0.53824443	     -0.75589112	      0.73458794	    -13.45837435	    -10.99529324	      6.65937829	    -28.49221952	      4.72205449	     -8.15240623	      0.26524501	    -14.81691150	     36.01677389	    -51.94524022	     -3.03489515	    -11.81153515
      2.11000000	     98.28380269	     14.07572353	     -4.14557753	      0.54830633	     -0.75579670	      0.73331890	    -13.46616602	    -10.94200398	      5.95264297	    -28.94800960	      5.34314608	     -7.56807784	     -0.44050292	    -14.77464601	     36.59812490	    -49.33467220	     -3.35896966	    -10.73602051
      2.12000000	     98.43945627	     14.61543974	     -4.04831793	      0.55856158	     -0.75569134	      0.73181391	    -13.54506773	    -11.03842289	      5.09920406	    -29.31134709	      5.59862086	     -7.39626669	     -1.26933547	    -14.65120184	     36.90239512	    -46.50070003	     -3.56820066	    -10.24932707
      2.13000000	     98.55109051	     15.12595247	     -3.91171199	      0.56905856	     -0.75562876	      0.73007214	    -13.55976729	    -10.99601700	      4.25783347	    -29.77268650	      6.01601768	     -7.24037953	     -2.08948865	    -14.47340195	     36.94984693	    -43.48094220	     -4.05934385	     -9.44018595
      2.14000000	     98.64831376	     15.63330842	     -3.85365669	      0.57984150	     -0.75563965	      0.72815483	    -13.53219463	    -11.02406770	      3.49592289	    -30.29281222	      6.83147686	     -6.43566439	     -2.88303454	    -14.26881592	     36.86579447	    -40.35629195	     -4.10064367	     -7.94211470
      2.15000000	     98.73958377	     16.09813484	     -3.65340112	      0.59096693	     -0.75566116	      0.72601726	    -13.53270346	    -11.12603466	      2.53170680	    -30.79948559	      7.17771754	     -6.44923166	     -3.73949903	    -13.93676530	     36.42360972	    -37.22833468	     -4.76279722	     -7.26524868
      2.16000000	     98.81051671	     16.53100433	     -3.40107815	      0.60245553	     -0.75572695	      0.72370392	    -13.52576463	    -11.28043497	      1.50068523	    -31.35841633	      7.57893648	     -6.40999504	     -4.59158466	    -13.49913935	     35.76260413	    -34.21480214	     -5.38374221	     -6.56926667
      2.17000000	     98.85004288	     16.93011738	     -3.09154079	      0.61431748	     -0.75583606	      0.72124123	    -13.49508225	    -11.42885306	      0.42656500	    -31.99977513	      7.95936135	     -6.33385418	     -5.41524936	    -12.94470801	     34.92063431	    -31.43328643	     -5.93381450	     -5.96555777
      2.18000000	     98.85692832	     17.26302219	     -2.74559135	      0.62652188	     -0.75598926	      0.71866160	    -13.43093446	    -11.50972335	     -0.63876949	    -32.74868780	      8.11056563	     -6.30674187	     -6.20255994	    -12.20499544	     33.96797617	    -28.99676911	     -6.18086152	     -5.66948238
      2.19000000	     98.78715504	     17.56492597	     -2.37722874	      0.63905085	     -0.75620936	      0.71603501	    -13.27662666	    -11.53292560	     -1.64076960	    -33.64750253	      8.29446956	     -6.27961055	     -6.84600544	    -11.41093891	     32.98355951	    -26.99268460	     -6.50161692	     -5.37570392
      2.20000000	     98.63269203	     17.81845652	     -2.03790541	      0.65184927	     -0.75650245	      0.71342409	    -13.00270430	    -11.45150678	     -2.48725740	    -34.72439033	      8.43231085	     -6.22483760	     -7.31665698	    -10.54213460	     32.05720070	    -25.47843610	     -6.75051030	     -5.19494044
      2.21000000	     98.39467388	     18.01110679	     -1.76356122	      0.66486300	     -0.75687350	      0.71088964	    -12.59259053	    -11.22263113	     -3.11251192	    -35.99637623	      8.45888277	     -6.15113255	     -7.59450484	     -9.60750003	     31.25792881	    -24.48769620	     -6.83880165	     -5.16885656
      2.22000000	     98.05736642	     18.14985945	     -1.53216023	      0.67804242	     -0.75732760	      0.70847339	    -12.00967065	    -10.77907423	     -3.49808279	    -37.48659556	      8.36726431	     -6.06002669	     -7.64807134	     -8.65515516	     30.58196537	    -24.01753706	     -6.77920381	     -5.28690308
      2.23000000	     97.60021919	     18.24148457	     -1.32239062	      0.69136257	     -0.75788514	      0.70621466	    -11.23899197	    -10.13026529	     -3.65570666	    -39.19639957	      7.91267613	     -5.47612827	     -7.45735739	     -7.68945975	     30.01116957	    -24.03660251	     -6.30993528	     -6.16350700
      2.24000000	     97.01815655	     18.28979987	     -1.21796404	      0.70473418	     -0.75855585	      0.70415490	    -10.24934587	     -9.26136195	     -3.45314638	    -41.16687481	      7.70504739	     -5.47599959	     -6.97130993	     -6.82729011	     29.64177626	    -24.47652761	     -6.15426667	     -6.34505965
      2.25000000	     96.37412614	     18.26674142	     -1.17681844	      0.71811639	     -0.75931440	      0.70231854	     -9.13875558	     -8.15545677	     -2.98111200	    -43.33907727	      6.68644084	     -4.89842247	     -6.32351771	     -5.91343084	     29.37273629	    -25.23994028	     -5.21190330	     -7.46385393
      2.26000000	     95.60873910	     18.20187135	     -1.14648961	      0.73147876	     -0.76016318	      0.70072443	     -7.87410428	     -6.86774425	     -2.27889153	    -45.72211272	      5.79497887	     -4.59817685	     -5.41510682	     -5.12804286	     29.15866705	    -26.22939402	     -4.52932458	     -8.24828008
      2.27000000	     94.75371004	     18.08884256	     -1.13586544	      0.74476271	     -0.76108752	      0.69940226	     -6.51894743	     -5.43707879	     -1.36534280	    -48.28240289	      4.71828325	     -4.39675427	     -4.30563880	     -4.44812713	     28.96877061	    -27.33166354	     -3.73253567	     -8.95958462
      2.28000000	     93.81824659	     17.92688350	     -1.13829062	      0.75791112	     -0.76207174	      0.69838823	     -5.11818949	     -3.91377816	     -0.26885768	    -50.98740753	      3.48297220	     -4.31513276	     -3.02593319	     -3.88012634	     28.76038113	    -28.42638955	     -2.87610981	     -9.58034776
      2.29000000	     92.82819911	     17.70793700	     -1.16993721	      0.77086674	     -0.76309088	      0.69771381	     -3.73192799	     -2.34234047	      0.99823725	    -53.79228664	      2.14723312	     -4.37571883	     -1.62796224	     -3.41146147	     28.52027994	    -29.42046884	     -2.00193545	    -10.08335364
      2.30000000	     91.78638099	     17.42153471	     -1.14402912	      0.78359722	     -0.76411150	      0.69738986	     -2.39305305	     -0.75488443	      2.31481979	    -56.64037509	      0.60272561	     -4.88044254	     -0.14311690	     -3.03285784	     28.13338287	    -30.23132876	     -1.10957875	    -10.36077161
      2.31000000	     90.74651281	     17.08856245	     -1.25912926	      0.79602067	     -0.76514060	      0.69748620	     -1.17923694	      0.77989862	      3.88247548	    -59.51667635	     -0.76953167	     -5.39173626	      1.36118162	     -2.74835386	     27.77673043	    -30.79150783	     -0.28339124	    -10.52137014
      2.32000000	     89.71721955	     16.70100252	     -1.40666211	      0.80813954	     -0.76614446	      0.69798276	     -0.11597274	      2.25153357	      5.55502525	    -62.34805246	     -2.05366953	     -6.09044927	      2.85053335	     -2.54025384	     27.32795651	    -31.07516096	      0.47329918	    -10.49497141
      2.33000000	     88.74979761	     16.23973658	     -1.68129799	      0.81990392	     -0.76709512	      0.69889989	      0.73415249	      3.68910138	      7.42281333	    -65.10240513	     -2.60149904	     -6.39157705	      4.24360701	     -2.30926516	     26.86372239	    -31.05679053	      0.82281115	    -10.49273502
